<svg width="25" height="24" viewBox="0 0 25 24" fill="none" xmlns="http://www.w3.org/2000/svg">
<path d="M12.6925 2.16435C15.8973 2.16435 16.2735 2.17863 17.5401 2.23577C18.7116 2.28816 19.3449 2.48339 19.7687 2.65006C20.3306 2.86911 20.7306 3.12625 21.1496 3.5453C21.5687 3.96435 21.8306 4.36435 22.0449 4.92625C22.2068 5.35006 22.4068 5.98339 22.4592 7.15482C22.5163 8.42149 22.5306 8.79768 22.5306 12.0024C22.5306 15.2072 22.5163 15.5834 22.4592 16.8501C22.4068 18.0215 22.2116 18.6548 22.0449 19.0786C21.8258 19.6405 21.5687 20.0405 21.1496 20.4596C20.7306 20.8786 20.3306 21.1405 19.7687 21.3548C19.3449 21.5167 18.7116 21.7167 17.5401 21.7691C16.2735 21.8263 15.8973 21.8405 12.6925 21.8405C9.48774 21.8405 9.11155 21.8263 7.84488 21.7691C6.67346 21.7167 6.04012 21.5215 5.61631 21.3548C5.05441 21.1358 4.65441 20.8786 4.23536 20.4596C3.81631 20.0405 3.55441 19.6405 3.34012 19.0786C3.17822 18.6548 2.97822 18.0215 2.92584 16.8501C2.86869 15.5834 2.85441 15.2072 2.85441 12.0024C2.85441 8.79768 2.86869 8.42149 2.92584 7.15482C2.97822 5.98339 3.17346 5.35006 3.34012 4.92625C3.55917 4.36435 3.81631 3.96435 4.23536 3.5453C4.65441 3.12625 5.05441 2.86435 5.61631 2.65006C6.04012 2.48816 6.67346 2.28816 7.84488 2.23577C9.11155 2.17387 9.4925 2.16435 12.6925 2.16435ZM12.6925 0.00244141C9.43536 0.00244141 9.02584 0.0167271 7.74488 0.07387C6.46869 0.131013 5.59727 0.335775 4.83536 0.631013C4.04488 0.935775 3.37822 1.35006 2.71155 2.01673C2.04488 2.68339 1.63536 3.35482 1.32584 4.14054C1.0306 4.90244 0.825837 5.77387 0.768694 7.05482C0.711551 8.33101 0.697266 8.74054 0.697266 11.9977C0.697266 15.2548 0.711551 15.6643 0.768694 16.9453C0.825837 18.2215 1.0306 19.0929 1.32584 19.8596C1.6306 20.6501 2.04488 21.3167 2.71155 21.9834C3.37822 22.6501 4.04965 23.0596 4.83536 23.3691C5.59727 23.6643 6.46869 23.8691 7.74965 23.9263C9.0306 23.9834 9.43536 23.9977 12.6973 23.9977C15.9592 23.9977 16.3639 23.9834 17.6449 23.9263C18.9211 23.8691 19.7925 23.6643 20.5592 23.3691C21.3496 23.0643 22.0163 22.6501 22.683 21.9834C23.3496 21.3167 23.7592 20.6453 24.0687 19.8596C24.3639 19.0977 24.5687 18.2263 24.6258 16.9453C24.683 15.6643 24.6973 15.2596 24.6973 11.9977C24.6973 8.73577 24.683 8.33101 24.6258 7.05006C24.5687 5.77387 24.3639 4.90244 24.0687 4.13578C23.7639 3.3453 23.3496 2.67863 22.683 2.01197C22.0163 1.3453 21.3449 0.935775 20.5592 0.626251C19.7973 0.331013 18.9258 0.126251 17.6449 0.0691081C16.3592 0.0167271 15.9496 0.00244141 12.6925 0.00244141Z" fill="#303637"/>
<path d="M12.6922 5.84058C9.29218 5.84058 6.53027 8.59772 6.53027 12.0025C6.53027 15.4072 9.28742 18.1644 12.6922 18.1644C16.0969 18.1644 18.8541 15.4072 18.8541 12.0025C18.8541 8.59772 16.0969 5.84058 12.6922 5.84058ZM12.6922 15.9977C10.4827 15.9977 8.69218 14.2072 8.69218 11.9977C8.69218 9.78819 10.4827 7.99772 12.6922 7.99772C14.9017 7.99772 16.6922 9.78819 16.6922 11.9977C16.6922 14.2072 14.9017 15.9977 12.6922 15.9977Z" fill="#303637"/>
<path d="M19.0973 7.03098C19.8915 7.03098 20.5354 6.38712 20.5354 5.59288C20.5354 4.79864 19.8915 4.15479 19.0973 4.15479C18.303 4.15479 17.6592 4.79864 17.6592 5.59288C17.6592 6.38712 18.303 7.03098 19.0973 7.03098Z" fill="#303637"/>
</svg>
