<svg width="25" height="20" viewBox="0 0 25 20" fill="none" xmlns="http://www.w3.org/2000/svg">
<path d="M7.71455 19.7487C16.7673 19.7487 21.7209 12.2415 21.7209 5.74231C21.7209 5.53111 21.7209 5.31991 21.7113 5.10871C22.6713 4.40791 23.5065 3.54391 24.1689 2.56471C23.2665 2.95831 22.3161 3.22711 21.3369 3.34231C22.3641 2.72791 23.1321 1.75831 23.4969 0.615913C22.5273 1.19191 21.4713 1.59511 20.3673 1.80631C18.5049 -0.180887 15.3849 -0.276887 13.3977 1.59511C12.1209 2.79511 11.5737 4.59031 11.9769 6.29911C8.03135 6.09751 4.33535 4.22551 1.83935 1.15351C0.533745 3.39991 1.19615 6.27991 3.36575 7.71991C2.57855 7.70071 1.82015 7.48951 1.12895 7.10551C1.12895 7.12471 1.12895 7.14391 1.12895 7.16311C1.12895 9.50551 2.78015 11.5215 5.08415 11.9919C4.35455 12.1935 3.59615 12.2223 2.85695 12.0783C3.50015 14.0847 5.35295 15.4575 7.45535 15.4959C5.70815 16.8687 3.55775 17.6079 1.34015 17.6079C0.946545 17.6079 0.552945 17.5791 0.168945 17.5407C2.42495 18.9903 5.03615 19.7487 7.71455 19.7487Z" fill="#303637"/>
</svg>
