<svg width="57" height="17" viewBox="0 0 57 17" fill="none" xmlns="http://www.w3.org/2000/svg">
<rect x="0.309692" y="0.710266" width="56" height="16.2897" rx="3" fill="#8DC642"/>
<path d="M37.1879 0.710335H53.3097C54.9666 0.710335 56.3097 2.05348 56.3097 3.71033V14.0001C56.3097 15.6569 54.9666 17.0001 53.3097 17.0001H37.1879V0.710335Z" fill="#303637"/>
<path fill-rule="evenodd" clip-rule="evenodd" d="M44.2103 6.59337C44.2103 5.15608 45.3673 3.99907 46.8046 3.99907C48.2419 3.99907 49.3989 5.15608 49.3989 6.59337V7.67919L48.7956 7.67935L48.1923 7.67934V6.59337C48.1923 5.8225 47.5755 5.20573 46.8046 5.20573C46.0338 5.20573 45.417 5.8225 45.417 6.59337V7.67919L44.8137 7.67935L44.2103 7.67934V6.59337ZM44.8137 7.67935L44.2103 7.67934C44.2103 8.01255 44.4804 8.28268 44.8137 8.28268C45.1469 8.28268 45.417 8.0124 45.417 7.67919L44.8137 7.67935ZM48.7956 8.28268C48.4624 8.28268 48.1923 8.01255 48.1923 7.67934L48.7956 7.67935L49.3989 7.67919C49.3989 8.0124 49.1288 8.28268 48.7956 8.28268Z" fill="white"/>
<path fill-rule="evenodd" clip-rule="evenodd" d="M43.909 7.4978H49.7009C50.0086 7.4978 50.2439 7.7331 50.2439 8.04079V12.3847C50.2439 12.6924 50.0086 12.9277 49.7009 12.9277H43.909C43.6013 12.9277 43.366 12.6924 43.366 12.3847V8.04079C43.366 7.7331 43.6013 7.4978 43.909 7.4978ZM47.1662 10.7558V10.249C47.2748 10.1585 47.3472 10.0137 47.3472 9.85077C47.3472 9.54308 47.1119 9.30778 46.8043 9.30778C46.4966 9.30778 46.2613 9.54308 46.2613 9.85077C46.2613 10.0137 46.3337 10.1585 46.4423 10.249V10.7558C46.4423 10.9549 46.6052 11.1178 46.8043 11.1178C47.0034 11.1178 47.1662 10.9549 47.1662 10.7558Z" fill="white"/>
<path d="M7.80054 6.05753V11.7963H9.99186C11.7139 11.7963 12.728 10.7265 12.728 8.90505C12.728 7.08359 11.7139 6.05753 9.99186 6.05753H7.80054ZM9.00159 7.0478H9.84869C10.9066 7.0478 11.5031 7.70798 11.5031 8.90903C11.5031 10.1499 10.9225 10.8021 9.84869 10.8021H9.00159V7.0478Z" fill="white"/>
<path d="M19.5804 11.7963V6.05753H18.1884L16.5579 10.126H16.526L14.8955 6.05753H13.5035V11.7963H14.5733V7.92274H14.6052L16.1641 11.7406H16.9198L18.4788 7.92274H18.5106V11.7963H19.5804Z" fill="white"/>
<path d="M23.0722 11.8957C24.48 11.8957 25.4623 11.0844 25.5976 9.80385H24.4283C24.3011 10.4839 23.788 10.9015 23.0761 10.9015C22.1575 10.9015 21.5808 10.1459 21.5808 8.92096C21.5808 7.71196 22.1654 6.95235 23.0722 6.95235C23.7721 6.95235 24.313 7.41368 24.4243 8.11761H25.5936C25.5021 6.83304 24.4522 5.95811 23.0722 5.95811C21.4098 5.95811 20.3559 7.07564 20.3559 8.92494C20.3559 10.7782 21.4018 11.8957 23.0722 11.8957Z" fill="white"/>
<path d="M29.9007 11.7963H31.1773L29.1808 6.05753H27.769L25.7765 11.7963H27.0094L27.4469 10.4044H29.4632L29.9007 11.7963ZM28.4411 7.15518H28.4689L29.2047 9.50558H27.7054L28.4411 7.15518Z" fill="white"/>
</svg>
